<html>
<head>
<meta charset="UTF-8">
<meta name="viewport" content="width=device-width, initial-scale=1.0"/>

<style>
.comment
{
    padding-left: 20px;
    margin-top: 4px;
    margin-right: 4px;
    margin-bottom: 4px;
    border: 2px #000 solid;
}
.submission
{
    border: 4px #00f solid;
    padding-left: 20px;
}
.hidden
{
    display: none;
}
</style>
</head>
<body><div class="submission" id="t3_65qpuj">
    <p class="userinfo">
        <a href="https://www.reddit.com/u/vcdupper">vcdupper</a>
        <span class="score"> | 35 points</span>
        <span class="timestamp"> | Apr 16 2017 18:53:36</span>
    </p>
    <strong>[MOVIE] Rumble.In.The.Bronx.1995.1080p.BluRay.x264.DTSHD.5.1-DDR [10.59GB]</strong>
    <p><p>Add mega<br>
.nz/#!NP4DTBbQ<br>
!T-xi32GDR5rdm-sIC9ycN2AlVhW_jFGd1iZwKNcJ9II  </p>
<hr>
<h3><a href="https://youtu.be/ixZnhA7Wmq4">Unsure How To Download?</a>  &lt;------CLICK HERE!!!</h3>
<hr>
<p><a href="https://extratorrent.cc/torrent/5428541/Rumble+In+The+Bronx+%281995%29+1080p+BluRay+x264+DTSHD+5.1+-DDR.html">INFO &amp; SCREENS</a>  </p>
<hr>
<p>SPECS: </p>
<p>Source: Blu-ray  </p>
<p>Format : Matroska<br>
File size : 10.6 GiB<br>
Duration : 1 h 39 min<br>
Overall bit rate : 15.2 Mb/s  </p>
<p>Video:<br>
Format : AVC<br>
Format profile : High@L4.1<br>
Bit rate : 14.0 Mb/s<br>
Width : 1920 pixels<br>
Height : 800 pixels<br>
Display aspect ratio : 2.40:1<br>
Frame rate : 23.976 (24000/1001) FPS<br>
Bit depth : 8 bits<br>
Stream size : 8.97 GiB (85%)<br>
Color primaries : BT.709  </p>
<p>Audio #1<br>
Format : DTSHD-MA 5.1<br>
Bit rate : 2325 kb/s / 768 kb/s<br>
Channel(s) : 6 channels<br>
Bit depth : 24 bits<br>
Stream size : 1.62 GiB (15%)<br>
Language : English  </p>
<p>Chapters: YES  </p></p>
    <p class="toolbar">
        <a href="https://www.reddit.com/r/megalinks/comments/65qpuj">permalink</a>
    </p>
</div>
<div class="comment" id="t1_dgdbfs3">
    <p class="userinfo">
        <a
        class="toggle_hide_button"
        href="javascript:void(0)"
        onclick="toggle_collapse(this.parentElement.parentElement)">[-]
        </a>
        [deleted]
        <span class="score"> | 2 points</span>
        <span class="timestamp"> | Apr 17 2017 09:44:58</span>
    </p>
    <div class="collapsible">
        <p>Ty so much for all these high quality movies you just put up</p>
        <p class="toolbar">
            <a href="https://www.reddit.com/r/megalinks/comments/65qpuj/_/dgdbfs3">permalink</a>
        </p>
        
    </div>
</div>

<div class="comment" id="t1_dgcjg6n">
    <p class="userinfo">
        <a
        class="toggle_hide_button"
        href="javascript:void(0)"
        onclick="toggle_collapse(this.parentElement.parentElement)">[-]
        </a>
        <a href="https://www.reddit.com/u/Shanks01">Shanks01</a>
        <span class="score"> | 1 points</span>
        <span class="timestamp"> | Apr 16 2017 20:38:09</span>
    </p>
    <div class="collapsible">
        <p>Excelente , muchas gracias ,más películas de jackie chan en esta calidad por favor .</p>
        <p class="toolbar">
            <a href="https://www.reddit.com/r/megalinks/comments/65qpuj/_/dgcjg6n">permalink</a>
        </p>
        
    </div>
</div>

<div class="comment" id="t1_dgceqzn">
    <p class="userinfo">
        <a
        class="toggle_hide_button"
        href="javascript:void(0)"
        onclick="toggle_collapse(this.parentElement.parentElement)">[-]
        </a>
        <a href="https://www.reddit.com/u/SubZorro">SubZorro</a>
        <span class="score"> | 0 points</span>
        <span class="timestamp"> | Apr 16 2017 18:56:05</span>
    </p>
    <div class="collapsible">
        <h5>Subtitles for this movie:</h5>
<hr>
<blockquote>
<ul>
<li>
<p><strong>Rumble.In.The.Bronx.WS.1995.DVDRip.XViD-TWiST</strong> - <code>1 CD</code> - <a href="http://dl.opensubtitles.org/en/download/vrf-f382e14d/sub/3928250">Download Subtitle</a></p>
</li>
<li>
<p><strong>Rumble In The Bronx (1996)</strong> - <code>1 CD</code> - <a href="http://dl.opensubtitles.org/en/download/vrf-f3eba09f/sub/143777">Download Subtitle</a></p>
</li>
<li>
<p><strong>Rumble In The Bronx</strong> - <code>1 CD</code> - <a href="http://dl.opensubtitles.org/en/download/vrf-aba93060/sub/111421">Download Subtitle</a></p>
</li>
</ul>
</blockquote>
<hr>
<p>^This ^list ^of ^subtitles ^are ^taken ^from <a href="http://www.opensubtitles.org">^opensubtitles.org</a> ^| ^For ^feedback ^or ^suggestions ^contact <a href="http://www.reddit.com/message/compose/?to=indigo6alpha">^/u/indigo6alpha</a></p>
        <p class="toolbar">
            <a href="https://www.reddit.com/r/megalinks/comments/65qpuj/_/dgceqzn">permalink</a>
        </p>
        
    </div>
</div>
</body>

<script>
function toggle_collapse(comment_div)
{
    var button = comment_div.getElementsByClassName("toggle_hide_button")[0];
    var collapsible = comment_div.getElementsByClassName("collapsible")[0];
    if (collapsible.classList.contains("hidden"))
    {
        collapsible.classList.remove("hidden");
        button.innerText = "[-]";
    }
    else
    {
        collapsible.classList.add("hidden");
        button.innerText = "[+]";
    }
}
</script>
</html>
